<svg width="20" height="25" viewBox="0 0 20 25" fill="none" xmlns="http://www.w3.org/2000/svg">
    <path d="M20 7.73438C20 7.52604 19.9642 7.32747 19.8926 7.13867C19.821 6.94987 19.7135 6.78385 19.5703 6.64062V6.60156H19.5312C19.375 6.44531 19.1927 6.31836 18.9844 6.2207C18.776 6.12305 18.5547 6.06771 18.3203 6.05469H1.67969C1.44531 6.05469 1.22396 6.10677 1.01562 6.21094C0.807292 6.3151 0.625 6.44531 0.46875 6.60156H0.429688V6.64062C0.299479 6.78385 0.195312 6.94661 0.117188 7.12891C0.0390625 7.3112 0 7.50651 0 7.71484C0 7.71484 0 7.7181 0 7.72461C0 7.73112 0 7.73438 0 7.73438V17.5391C0 17.7474 0.0423177 17.946 0.126953 18.1348C0.211589 18.3236 0.325521 18.4896 0.46875 18.6328V18.6719C0.625 18.8281 0.807292 18.9518 1.01562 19.043C1.22396 19.1341 1.44531 19.1797 1.67969 19.1797H18.3203C18.5547 19.1797 18.776 19.1341 18.9844 19.043C19.1927 18.9518 19.375 18.8281 19.5312 18.6719C19.6875 18.5156 19.7266 18.4733 19.6484 18.5449C19.5703 18.6165 19.5312 18.6458 19.5312 18.6328C19.6875 18.5026 19.8047 18.3431 19.8828 18.1543C19.9609 17.9655 20 17.7604 20 17.5391V7.73438ZM13.4375 12.1094L19.2188 7.34375C19.2318 7.39583 19.248 7.45443 19.2676 7.51953C19.2871 7.58464 19.2969 7.65625 19.2969 7.73438V17.5391C19.2969 17.5911 19.2936 17.6465 19.2871 17.7051C19.2806 17.7637 19.2578 17.8255 19.2188 17.8906L13.4375 12.1094ZM18.3203 6.75781C18.3984 6.75781 18.4668 6.76432 18.5254 6.77734C18.584 6.79036 18.6458 6.8099 18.7109 6.83594L10 14.0625L1.28906 6.83594C1.34115 6.82292 1.39974 6.80664 1.46484 6.78711C1.52995 6.76758 1.60156 6.75781 1.67969 6.75781H18.3203ZM0.78125 17.8906C0.742188 17.8385 0.719401 17.7832 0.712891 17.7246C0.70638 17.666 0.703125 17.6042 0.703125 17.5391V7.73438C0.703125 7.65625 0.709635 7.58789 0.722656 7.5293C0.735677 7.4707 0.755208 7.40885 0.78125 7.34375L6.5625 12.1094L0.78125 17.8906ZM1.67969 18.5156C1.60156 18.5156 1.52669 18.5026 1.45508 18.4766C1.38346 18.4505 1.3151 18.4245 1.25 18.3984L7.07031 12.5391L9.76562 14.8047C9.80469 14.8177 9.84375 14.834 9.88281 14.8535C9.92188 14.873 9.96094 14.8828 10 14.8828C10.0391 14.8828 10.0781 14.8763 10.1172 14.8633C10.1562 14.8503 10.1953 14.8307 10.2344 14.8047L12.9297 12.5391L18.75 18.3984C18.6979 18.4115 18.6328 18.4342 18.5547 18.4668C18.4766 18.4993 18.3984 18.5156 18.3203 18.5156H1.67969Z" fill="white"/>
    </svg>
    